# xmcd
# 
# Track frame offsets:
#     150
#     14800
#     29522
#     45257
#     63555
#     78472
#     94747
#     110877
#     122942
#     134027
# 
# Disc length: 1933
# 
# Revision: 3
# Processed by: cddbd v1.5.2PL0 Copyright (c) Steve Scherf et al.
# Submitted via: fre:ac v1.1beta1pre3
# 
DISCID=93078b0a
DTITLE=Merle Haggard and George Jones - A Taste Of Yesterday's Wine
DYEAR=1982
DGENRE=Country
TTITLE0=Yesterday's Wine
TTITLE1=After I Sing All My Songs
TTITLE2=I Think I've Found A Way
TTITLE3=The Brothers
TTITLE4=Mobile Bay
TTITLE5=C.C. Waterback
TTITLE6=Silver Eagle
TTITLE7=Must've Been Drunk
TTITLE8=I Haven't Found Her Yet
TTITLE9=No Show Jones
EXTD=
EXTT0=
EXTT1=
EXTT2=
EXTT3=
EXTT4=
EXTT5=
EXTT6=
EXTT7=
EXTT8=
EXTT9=
PLAYORDER=
